<svg xmlns:xlink="http://www.w3.org/1999/xlink" version="1.1" style="font-family:'lucida grande', 'lucida sans unicode', arial, helvetica, sans-serif;font-size:12px;" xmlns="http://www.w3.org/2000/svg" width="600" height="400"><desc>Created with Highstock 4.2.1</desc><defs><clipPath id="highcharts-11"><rect x="0" y="0" width="513" height="243"></rect></clipPath></defs><rect x="0" y="0" width="600" height="400" strokeWidth="0" fill="#FFFFFF" class=" highcharts-background"></rect><path fill="none" d="M 77 296.5 L 590 296.5" stroke="#808050" stroke-width="1"></path><g class="highcharts-grid" ></g><g class="highcharts-grid" ><path fill="none" d="M 77 296.5 L 590 296.5" stroke="#D8D8D8" stroke-width="1"  opacity="1"></path><path fill="none" d="M 77 247.5 L 590 247.5" stroke="#D8D8D8" stroke-width="1"  opacity="1"></path><path fill="none" d="M 77 199.5 L 590 199.5" stroke="#D8D8D8" stroke-width="1"  opacity="1"></path><path fill="none" d="M 77 150.5 L 590 150.5" stroke="#D8D8D8" stroke-width="1"  opacity="1"></path><path fill="none" d="M 77 102.5 L 590 102.5" stroke="#D8D8D8" stroke-width="1"  opacity="1"></path><path fill="none" d="M 77 52.5 L 590 52.5" stroke="#D8D8D8" stroke-width="1"  opacity="1"></path></g><g class="highcharts-axis" ><path fill="none" d="M 101.5 296 L 101.5 306" stroke="#C0D0E0" stroke-width="1" opacity="1"></path><path fill="none" d="M 134.5 296 L 134.5 306" stroke="#C0D0E0" stroke-width="1" opacity="1"></path><path fill="none" d="M 167.5 296 L 167.5 306" stroke="#C0D0E0" stroke-width="1" opacity="1"></path><path fill="none" d="M 200.5 296 L 200.5 306" stroke="#C0D0E0" stroke-width="1" opacity="1"></path><path fill="none" d="M 233.5 296 L 233.5 306" stroke="#C0D0E0" stroke-width="1" opacity="1"></path><path fill="none" d="M 266.5 296 L 266.5 306" stroke="#C0D0E0" stroke-width="1" opacity="1"></path><path fill="none" d="M 299.5 296 L 299.5 306" stroke="#C0D0E0" stroke-width="1" opacity="1"></path><path fill="none" d="M 332.5 296 L 332.5 306" stroke="#C0D0E0" stroke-width="1" opacity="1"></path><path fill="none" d="M 366.5 296 L 366.5 306" stroke="#C0D0E0" stroke-width="1" opacity="1"></path><path fill="none" d="M 399.5 296 L 399.5 306" stroke="#C0D0E0" stroke-width="1" opacity="1"></path><path fill="none" d="M 432.5 296 L 432.5 306" stroke="#C0D0E0" stroke-width="1" opacity="1"></path><path fill="none" d="M 465.5 296 L 465.5 306" stroke="#C0D0E0" stroke-width="1" opacity="1"></path><path fill="none" d="M 498.5 296 L 498.5 306" stroke="#C0D0E0" stroke-width="1" opacity="1"></path><path fill="none" d="M 531.5 296 L 531.5 306" stroke="#C0D0E0" stroke-width="1" opacity="1"></path><path fill="none" d="M 564.5 296 L 564.5 306" stroke="#C0D0E0" stroke-width="1" opacity="1"></path><text x="333.5"  text-anchor="middle" transform="translate(0,0)" class=" highcharts-xaxis-title" style="color:#707070;fill:#707070;" y="338">Jours</text><path fill="none" d="M 77 296.5 L 590 296.5" stroke="#C0D0E0" stroke-width="1" ></path></g><g class="highcharts-axis" ><text x="27.65625"  text-anchor="middle" transform="translate(0,0) rotate(270 27.65625 174.5)" class=" highcharts-yaxis-title" style="color:#707070;fill:#707070;" y="174.5">KWH</text></g><g class="highcharts-series-group" ><g class="highcharts-series highcharts-series-0"  transform="translate(77,53) scale(1 1)" clip-path="url(#highcharts-11)"><rect x="3.5" y="243.5" width="4" height="0" stroke="#FFFFFF" stroke-width="1" fill="#7cb5ec" rx="0" ry="0"></rect><rect x="19.5" y="243.5" width="4" height="0" stroke="#FFFFFF" stroke-width="1" fill="#7cb5ec" rx="0" ry="0"></rect><rect x="36.5" y="243.5" width="4" height="0" stroke="#FFFFFF" stroke-width="1" fill="#7cb5ec" rx="0" ry="0"></rect><rect x="52.5" y="243.5" width="4" height="0" stroke="#FFFFFF" stroke-width="1" fill="#7cb5ec" rx="0" ry="0"></rect><rect x="69.5" y="243.5" width="4" height="0" stroke="#FFFFFF" stroke-width="1" fill="#7cb5ec" rx="0" ry="0"></rect><rect x="86.5" y="243.5" width="4" height="0" stroke="#FFFFFF" stroke-width="1" fill="#7cb5ec" rx="0" ry="0"></rect><rect x="102.5" y="23.5" width="4" height="220" stroke="#FFFFFF" stroke-width="1" fill="#7cb5ec" rx="0" ry="0"></rect><rect x="119.5" y="190.5" width="4" height="53" stroke="#FFFFFF" stroke-width="1" fill="#7cb5ec" rx="0" ry="0"></rect><rect x="135.5" y="243.5" width="4" height="0" stroke="#FFFFFF" stroke-width="1" fill="#7cb5ec" rx="0" ry="0"></rect><rect x="152.5" y="243.5" width="4" height="0" stroke="#FFFFFF" stroke-width="1" fill="#7cb5ec" rx="0" ry="0"></rect><rect x="168.5" y="243.5" width="4" height="0" stroke="#FFFFFF" stroke-width="1" fill="#7cb5ec" rx="0" ry="0"></rect><rect x="185.5" y="243.5" width="4" height="0" stroke="#FFFFFF" stroke-width="1" fill="#7cb5ec" rx="0" ry="0"></rect><rect x="201.5" y="243.5" width="4" height="0" stroke="#FFFFFF" stroke-width="1" fill="#7cb5ec" rx="0" ry="0"></rect><rect x="218.5" y="243.5" width="4" height="0" stroke="#FFFFFF" stroke-width="1" fill="#7cb5ec" rx="0" ry="0"></rect><rect x="234.5" y="243.5" width="4" height="0" stroke="#FFFFFF" stroke-width="1" fill="#7cb5ec" rx="0" ry="0"></rect><rect x="251.5" y="243.5" width="4" height="0" stroke="#FFFFFF" stroke-width="1" fill="#7cb5ec" rx="0" ry="0"></rect><rect x="268.5" y="243.5" width="4" height="0" stroke="#FFFFFF" stroke-width="1" fill="#7cb5ec" rx="0" ry="0"></rect><rect x="284.5" y="243.5" width="4" height="0" stroke="#FFFFFF" stroke-width="1" fill="#7cb5ec" rx="0" ry="0"></rect><rect x="301.5" y="243.5" width="4" height="0" stroke="#FFFFFF" stroke-width="1" fill="#7cb5ec" rx="0" ry="0"></rect><rect x="317.5" y="243.5" width="4" height="0" stroke="#FFFFFF" stroke-width="1" fill="#7cb5ec" rx="0" ry="0"></rect><rect x="334.5" y="243.5" width="4" height="0" stroke="#FFFFFF" stroke-width="1" fill="#7cb5ec" rx="0" ry="0"></rect><rect x="350.5" y="243.5" width="4" height="0" stroke="#FFFFFF" stroke-width="1" fill="#7cb5ec" rx="0" ry="0"></rect><rect x="367.5" y="243.5" width="4" height="0" stroke="#FFFFFF" stroke-width="1" fill="#7cb5ec" rx="0" ry="0"></rect><rect x="383.5" y="243.5" width="4" height="0" stroke="#FFFFFF" stroke-width="1" fill="#7cb5ec" rx="0" ry="0"></rect><rect x="400.5" y="243.5" width="4" height="0" stroke="#FFFFFF" stroke-width="1" fill="#7cb5ec" rx="0" ry="0"></rect><rect x="417.5" y="243.5" width="4" height="0" stroke="#FFFFFF" stroke-width="1" fill="#7cb5ec" rx="0" ry="0"></rect><rect x="433.5" y="243.5" width="4" height="0" stroke="#FFFFFF" stroke-width="1" fill="#7cb5ec" rx="0" ry="0"></rect><rect x="450.5" y="243.5" width="4" height="0" stroke="#FFFFFF" stroke-width="1" fill="#7cb5ec" rx="0" ry="0"></rect><rect x="466.5" y="243.5" width="4" height="0" stroke="#FFFFFF" stroke-width="1" fill="#7cb5ec" rx="0" ry="0"></rect><rect x="483.5" y="243.5" width="4" height="0" stroke="#FFFFFF" stroke-width="1" fill="#7cb5ec" rx="0" ry="0"></rect><rect x="499.5" y="243.5" width="4" height="0" stroke="#FFFFFF" stroke-width="1" fill="#7cb5ec" rx="0" ry="0"></rect></g><g class="highcharts-markers highcharts-series-0"  transform="translate(77,53) scale(1 1)" clip-path="none"></g><g class="highcharts-series highcharts-series-1"  transform="translate(77,53) scale(1 1)" clip-path="url(#highcharts-11)"><rect x="8.5" y="243.5" width="4" height="0" stroke="#FFFFFF" stroke-width="1" fill="#434348" rx="0" ry="0"></rect><rect x="24.5" y="243.5" width="4" height="0" stroke="#FFFFFF" stroke-width="1" fill="#434348" rx="0" ry="0"></rect><rect x="41.5" y="243.5" width="4" height="0" stroke="#FFFFFF" stroke-width="1" fill="#434348" rx="0" ry="0"></rect><rect x="57.5" y="243.5" width="4" height="0" stroke="#FFFFFF" stroke-width="1" fill="#434348" rx="0" ry="0"></rect><rect x="74.5" y="243.5" width="4" height="0" stroke="#FFFFFF" stroke-width="1" fill="#434348" rx="0" ry="0"></rect><rect x="91.5" y="243.5" width="4" height="0" stroke="#FFFFFF" stroke-width="1" fill="#434348" rx="0" ry="0"></rect><rect x="107.5" y="243.5" width="4" height="0" stroke="#FFFFFF" stroke-width="1" fill="#434348" rx="0" ry="0"></rect><rect x="124.5" y="243.5" width="4" height="0" stroke="#FFFFFF" stroke-width="1" fill="#434348" rx="0" ry="0"></rect><rect x="140.5" y="243.5" width="4" height="0" stroke="#FFFFFF" stroke-width="1" fill="#434348" rx="0" ry="0"></rect><rect x="157.5" y="243.5" width="4" height="0" stroke="#FFFFFF" stroke-width="1" fill="#434348" rx="0" ry="0"></rect><rect x="173.5" y="243.5" width="4" height="0" stroke="#FFFFFF" stroke-width="1" fill="#434348" rx="0" ry="0"></rect><rect x="190.5" y="243.5" width="4" height="0" stroke="#FFFFFF" stroke-width="1" fill="#434348" rx="0" ry="0"></rect><rect x="206.5" y="243.5" width="4" height="0" stroke="#FFFFFF" stroke-width="1" fill="#434348" rx="0" ry="0"></rect><rect x="223.5" y="243.5" width="4" height="0" stroke="#FFFFFF" stroke-width="1" fill="#434348" rx="0" ry="0"></rect><rect x="239.5" y="243.5" width="4" height="0" stroke="#FFFFFF" stroke-width="1" fill="#434348" rx="0" ry="0"></rect><rect x="256.5" y="243.5" width="4" height="0" stroke="#FFFFFF" stroke-width="1" fill="#434348" rx="0" ry="0"></rect><rect x="273.5" y="243.5" width="4" height="0" stroke="#FFFFFF" stroke-width="1" fill="#434348" rx="0" ry="0"></rect><rect x="289.5" y="243.5" width="4" height="0" stroke="#FFFFFF" stroke-width="1" fill="#434348" rx="0" ry="0"></rect><rect x="306.5" y="243.5" width="4" height="0" stroke="#FFFFFF" stroke-width="1" fill="#434348" rx="0" ry="0"></rect><rect x="322.5" y="243.5" width="4" height="0" stroke="#FFFFFF" stroke-width="1" fill="#434348" rx="0" ry="0"></rect><rect x="339.5" y="243.5" width="4" height="0" stroke="#FFFFFF" stroke-width="1" fill="#434348" rx="0" ry="0"></rect><rect x="355.5" y="243.5" width="4" height="0" stroke="#FFFFFF" stroke-width="1" fill="#434348" rx="0" ry="0"></rect></g><g class="highcharts-markers highcharts-series-1"  transform="translate(77,53) scale(1 1)" clip-path="none"></g></g><text x="280" text-anchor="middle" class="highcharts-title"  style="color:#333333;font-size:18px;fill:#333333;width:536px;" y="24"><tspan>Comparaison énergie consommée au mois Aout 2010</tspan></text><g class="highcharts-legend"  transform="translate(78,356)"><g ><g><g class="highcharts-legend-item"  transform="translate(8,3)"><text x="21" style="color:#333333;font-size:12px;font-weight:bold;cursor:pointer;fill:#333333;" text-anchor="start"  y="15"><tspan>Energie consommée Aout</tspan></text><rect x="0" y="4" width="16" height="12"  fill="#7cb5ec"></rect></g><g class="highcharts-legend-item"  transform="translate(202.390625,3)"><text x="21" y="15" style="color:#333333;font-size:12px;font-weight:bold;cursor:pointer;fill:#333333;" text-anchor="start" ><tspan>Energie consommée du mois actuel</tspan></text><rect x="0" y="4" width="16" height="12"  fill="#434348"></rect></g></g></g></g><g class="highcharts-axis-labels highcharts-xaxis-labels" ><text x="101.82258064516128" style="color:#606060;cursor:default;font-size:11px;fill:#606060;" text-anchor="middle" transform="translate(0,0)" y="315" opacity="1">2</text><text x="134.91935483870967" style="color:#606060;cursor:default;font-size:11px;fill:#606060;" text-anchor="middle" transform="translate(0,0)" y="315" opacity="1">4</text><text x="168.01612903225805" style="color:#606060;cursor:default;font-size:11px;fill:#606060;" text-anchor="middle" transform="translate(0,0)" y="315" opacity="1">6</text><text x="201.11290322580643" style="color:#606060;cursor:default;font-size:11px;fill:#606060;" text-anchor="middle" transform="translate(0,0)" y="315" opacity="1">8</text><text x="234.20967741935485" style="color:#606060;cursor:default;font-size:11px;fill:#606060;" text-anchor="middle" transform="translate(0,0)" y="315" opacity="1">10</text><text x="267.3064516129032" style="color:#606060;cursor:default;font-size:11px;fill:#606060;" text-anchor="middle" transform="translate(0,0)" y="315" opacity="1">12</text><text x="300.4032258064516" style="color:#606060;cursor:default;font-size:11px;fill:#606060;" text-anchor="middle" transform="translate(0,0)" y="315" opacity="1">14</text><text x="333.49999999999994" style="color:#606060;cursor:default;font-size:11px;fill:#606060;" text-anchor="middle" transform="translate(0,0)" y="315" opacity="1">16</text><text x="366.59677419354836" style="color:#606060;cursor:default;font-size:11px;fill:#606060;" text-anchor="middle" transform="translate(0,0)" y="315" opacity="1">18</text><text x="399.6935483870967" style="color:#606060;cursor:default;font-size:11px;fill:#606060;" text-anchor="middle" transform="translate(0,0)" y="315" opacity="1">20</text><text x="432.7903225806451" style="color:#606060;cursor:default;font-size:11px;fill:#606060;" text-anchor="middle" transform="translate(0,0)" y="315" opacity="1">22</text><text x="465.8870967741935" style="color:#606060;cursor:default;font-size:11px;fill:#606060;" text-anchor="middle" transform="translate(0,0)" y="315" opacity="1">24</text><text x="498.9838709677419" style="color:#606060;cursor:default;font-size:11px;fill:#606060;" text-anchor="middle" transform="translate(0,0)" y="315" opacity="1">26</text><text x="532.0806451612902" style="color:#606060;cursor:default;font-size:11px;fill:#606060;" text-anchor="middle" transform="translate(0,0)" y="315" opacity="1">28</text><text x="565.1774193548387" style="color:#606060;cursor:default;font-size:11px;fill:#606060;" text-anchor="middle" transform="translate(0,0)" y="315" opacity="1">30</text></g><g class="highcharts-axis-labels highcharts-yaxis-labels" ><text x="62" style="color:#606060;cursor:default;font-size:11px;fill:#606060;width:188px;text-overflow:clip;" text-anchor="end" transform="translate(0,0)" y="299" opacity="1">0</text><text x="62" style="color:#606060;cursor:default;font-size:11px;fill:#606060;width:188px;text-overflow:clip;" text-anchor="end" transform="translate(0,0)" y="250" opacity="1">0.25</text><text x="62" style="color:#606060;cursor:default;font-size:11px;fill:#606060;width:188px;text-overflow:clip;" text-anchor="end" transform="translate(0,0)" y="201" opacity="1">0.5</text><text x="62" style="color:#606060;cursor:default;font-size:11px;fill:#606060;width:188px;text-overflow:clip;" text-anchor="end" transform="translate(0,0)" y="153" opacity="1">0.75</text><text x="62" style="color:#606060;cursor:default;font-size:11px;fill:#606060;width:188px;text-overflow:clip;" text-anchor="end" transform="translate(0,0)" y="104" opacity="1">1</text><text x="62" style="color:#606060;cursor:default;font-size:11px;fill:#606060;width:188px;text-overflow:clip;" text-anchor="end" transform="translate(0,0)" y="56" opacity="1">1.25</text></g><g class="highcharts-tooltip"  style="cursor:default;padding:0;pointer-events:none;white-space:nowrap;" transform="translate(0,-9999)"><path fill="none" d="M 3.5 0.5 L 13.5 0.5 C 16.5 0.5 16.5 0.5 16.5 3.5 L 16.5 13.5 C 16.5 16.5 16.5 16.5 13.5 16.5 L 3.5 16.5 C 0.5 16.5 0.5 16.5 0.5 13.5 L 0.5 3.5 C 0.5 0.5 0.5 0.5 3.5 0.5"  stroke="black" stroke-opacity="0.049999999999999996" stroke-width="5" transform="translate(1, 1)"></path><path fill="none" d="M 3.5 0.5 L 13.5 0.5 C 16.5 0.5 16.5 0.5 16.5 3.5 L 16.5 13.5 C 16.5 16.5 16.5 16.5 13.5 16.5 L 3.5 16.5 C 0.5 16.5 0.5 16.5 0.5 13.5 L 0.5 3.5 C 0.5 0.5 0.5 0.5 3.5 0.5"  stroke="black" stroke-opacity="0.09999999999999999" stroke-width="3" transform="translate(1, 1)"></path><path fill="none" d="M 3.5 0.5 L 13.5 0.5 C 16.5 0.5 16.5 0.5 16.5 3.5 L 16.5 13.5 C 16.5 16.5 16.5 16.5 13.5 16.5 L 3.5 16.5 C 0.5 16.5 0.5 16.5 0.5 13.5 L 0.5 3.5 C 0.5 0.5 0.5 0.5 3.5 0.5"  stroke="black" stroke-opacity="0.15" stroke-width="1" transform="translate(1, 1)"></path><path fill="rgb(249, 249, 249)" fill-opacity=" .85" d="M 3.5 0.5 L 13.5 0.5 C 16.5 0.5 16.5 0.5 16.5 3.5 L 16.5 13.5 C 16.5 16.5 16.5 16.5 13.5 16.5 L 3.5 16.5 C 0.5 16.5 0.5 16.5 0.5 13.5 L 0.5 3.5 C 0.5 0.5 0.5 0.5 3.5 0.5"></path><text x="8"  style="font-size:12px;color:#333333;fill:#333333;" y="20"></text></g></svg>